<svg width="24" height="24" viewBox="0 0 24 24" fill="none" xmlns="http://www.w3.org/2000/svg">
<path fill-rule="evenodd" clip-rule="evenodd" d="M1.50734 4.91458C1.55452 4.6425 1.81333 4.46017 2.08541 4.50735L4.21307 4.87627C4.23989 4.88092 4.26629 4.88775 4.29201 4.8967C4.59928 5.00366 4.84818 5.14659 5.03875 5.38335C5.21233 5.59901 5.30442 5.85605 5.38388 6.09293L5.72447 7.01767H18.6864C18.845 7.01767 18.9941 7.0929 19.0884 7.22042C19.1827 7.34794 19.2109 7.51263 19.1644 7.66425L17.4286 13.3252C17.1454 14.3066 16.3183 14.7842 15.5335 14.8091L15.5176 14.8093H8.77666C8.76808 14.8093 8.7595 14.8091 8.75093 14.8087C8.19241 14.7799 7.71359 14.6434 7.32435 14.3457C6.93621 14.0489 6.69189 13.6334 6.52272 13.1513C6.51998 13.1435 6.51743 13.1356 6.51508 13.1277L4.90097 7.6752L4.44296 6.43164L4.43805 6.41766C4.35419 6.16736 4.30852 6.07097 4.25975 6.01037C4.22833 5.97134 4.17239 5.91841 3.99955 5.85417L1.91457 5.49265C1.64249 5.44547 1.46016 5.18666 1.50734 4.91458ZM6.04525 8.01767L7.4703 12.8315C7.59979 13.1962 7.75218 13.414 7.93185 13.5514C8.11051 13.6881 8.36967 13.786 8.79 13.8093H15.509C15.9172 13.7938 16.3226 13.5549 16.4686 13.0452L16.4711 13.0362L16.4712 13.0362L18.0101 8.01767H6.04525Z" fill="#888B95"/>
<path fill-rule="evenodd" clip-rule="evenodd" d="M9.25333 17.3905C8.83728 17.3905 8.5 17.7278 8.5 18.1439C8.5 18.5599 8.83728 18.8972 9.25333 18.8972C9.66938 18.8972 10.0067 18.5599 10.0067 18.1439C10.0067 17.7278 9.66938 17.3905 9.25333 17.3905ZM7.5 18.1439C7.5 17.1755 8.28499 16.3905 9.25333 16.3905C10.2217 16.3905 11.0067 17.1755 11.0067 18.1439C11.0067 19.1122 10.2217 19.8972 9.25333 19.8972C8.28499 19.8972 7.5 19.1122 7.5 18.1439Z" fill="#888B95"/>
<path fill-rule="evenodd" clip-rule="evenodd" d="M15.2533 17.3905C14.8373 17.3905 14.5 17.7278 14.5 18.1439C14.5 18.5599 14.8373 18.8972 15.2533 18.8972C15.6694 18.8972 16.0067 18.5599 16.0067 18.1439C16.0067 17.7278 15.6694 17.3905 15.2533 17.3905ZM13.5 18.1439C13.5 17.1755 14.285 16.3905 15.2533 16.3905C16.2217 16.3905 17.0067 17.1755 17.0067 18.1439C17.0067 19.1122 16.2217 19.8972 15.2533 19.8972C14.285 19.8972 13.5 19.1122 13.5 18.1439Z" fill="#888B95"/>
<rect x="10" width="14" height="14" rx="7" fill="#FFEE00"/>
<path d="M17.609 10C17.549 10 17.498 9.982 17.456 9.946C17.42 9.904 17.402 9.853 17.402 9.793V8.497H14.486C14.426 8.497 14.375 8.479 14.333 8.443C14.297 8.401 14.279 8.35 14.279 8.29V7.93C14.279 7.906 14.285 7.87 14.297 7.822C14.315 7.768 14.342 7.714 14.378 7.66L17.078 3.853C17.15 3.751 17.261 3.7 17.411 3.7H18.059C18.119 3.7 18.167 3.721 18.203 3.763C18.245 3.799 18.266 3.847 18.266 3.907V7.714H19.076C19.142 7.714 19.193 7.735 19.229 7.777C19.271 7.813 19.292 7.861 19.292 7.921V8.29C19.292 8.35 19.271 8.401 19.229 8.443C19.193 8.479 19.145 8.497 19.085 8.497H18.266V9.793C18.266 9.853 18.245 9.904 18.203 9.946C18.167 9.982 18.119 10 18.059 10H17.609ZM15.242 7.732H17.411V4.645L15.242 7.732Z" fill="black"/>
</svg>
