<svg width="24" height="24" viewBox="0 0 24 24" fill="none" xmlns="http://www.w3.org/2000/svg">
<path fill-rule="evenodd" clip-rule="evenodd" d="M12.5 19C16.0899 19 19 16.0899 19 12.5C19 8.91015 16.0899 6 12.5 6C8.91015 6 6 8.91015 6 12.5C6 16.0899 8.91015 19 12.5 19ZM12.5 20C16.6421 20 20 16.6421 20 12.5C20 8.35786 16.6421 5 12.5 5C8.35786 5 5 8.35786 5 12.5C5 16.6421 8.35786 20 12.5 20Z" fill="black"/>
<path fill-rule="evenodd" clip-rule="evenodd" d="M12.0588 8.4707C12.335 8.4707 12.5588 8.69456 12.5588 8.9707V12.5809L16.1875 13.7905C16.4495 13.8778 16.5911 14.161 16.5038 14.4229C16.4164 14.6849 16.1333 14.8265 15.8713 14.7392L11.5588 13.3017V8.9707C11.5588 8.69456 11.7827 8.4707 12.0588 8.4707Z" fill="black"/>
</svg>
