<svg width="24" height="24" viewBox="0 0 24 24" fill="none" xmlns="http://www.w3.org/2000/svg">
<path d="M5.06668 9.86683C5.06668 9.57228 5.30546 9.3335 5.60001 9.3335C5.89457 9.3335 6.13335 9.57228 6.13335 9.86683V19.4668C6.13335 19.7614 5.89457 20.0002 5.60001 20.0002C5.30546 20.0002 5.06668 19.7614 5.06668 19.4668V9.86683Z" fill="black"/>
<path d="M9.33334 4.53333C9.33334 4.23878 9.57212 4 9.86668 4C10.1612 4 10.4 4.23878 10.4 4.53333V19.4667C10.4 19.7612 10.1612 20 9.86668 20C9.57212 20 9.33334 19.7612 9.33334 19.4667V4.53333Z" fill="black"/>
<path d="M13.6 9.86683C13.6 9.57228 13.8388 9.3335 14.1333 9.3335C14.4279 9.3335 14.6667 9.57228 14.6667 9.86683V19.4668C14.6667 19.7614 14.4279 20.0002 14.1333 20.0002C13.8388 20.0002 13.6 19.7614 13.6 19.4668V9.86683Z" fill="black"/>
<path d="M17.8667 4.53333C17.8667 4.23878 18.1055 4 18.4 4C18.6946 4 18.9333 4.23878 18.9333 4.53333V19.4667C18.9333 19.7612 18.6946 20 18.4 20C18.1055 20 17.8667 19.7612 17.8667 19.4667V4.53333Z" fill="black"/>
</svg>
