<svg width="110" height="32" viewBox="0 0 110 32" fill="none" xmlns="http://www.w3.org/2000/svg">
<path fill-rule="evenodd" clip-rule="evenodd" d="M17.0984 30.3866L8.95167 23.6598H0.0117188V0.28656H45.151V6.70988L46.6389 0.28656H55.8154L58.863 13.5574V0.28656H74.8388C74.8388 1.4374 74.8388 1.43855 74.8388 2.58939C76.7337 -0.86313 86.0111 -0.86313 87.9037 2.58939V0.28656H98.0775L98.9415 5.697L99.8055 0.28656H109.766V23.6598H87.9037C87.9037 22.9044 87.9037 22.1491 87.9037 21.3937C86.0111 24.8428 76.7337 24.8428 74.8388 21.3937V23.6598H66.0438V18.8069C65.748 21.6478 63.235 23.6931 60.1375 23.6598H52.3549L51.7206 19.6922H50.8821L50.2478 23.6598H17.0984V30.3866Z" fill="#22201E"/>
<path fill-rule="evenodd" clip-rule="evenodd" d="M9.60486 2.01095L9.6037 18.1882H6.59898L6.60014 2.01095H1.75037L1.74805 21.9696H11.4499V23.693L15.6549 27.1363V18.1882H14.4546L14.4558 2.01095H9.60486Z" fill="#FFEE00"/>
<path d="M22.4326 30.3768H24.0376V25.6907H22.4326V27.421H21.1929V25.6907H19.5879V30.3768H21.1929V28.4856H22.4326V30.3768ZM27.5514 30.3768H29.2503L27.6755 25.6907H25.7597L24.1779 30.3768H25.8525L26.0554 29.4686H27.3415L27.5514 30.3768ZM26.2815 28.4982L26.6944 26.661L27.1154 28.4982H26.2815ZM31.3459 25.6907H29.3906V30.3768H30.9956V28.9156H31.5256C32.8105 28.9156 33.6988 28.3637 33.6988 27.2669C33.6988 26.2161 32.8036 25.6907 31.3459 25.6907ZM31.3691 27.9395H30.9956V26.6541H31.3227C31.8526 26.6541 32.0625 26.8829 32.0625 27.2669C32.0625 27.7245 31.8213 27.9395 31.3691 27.9395ZM36.5041 25.5562C34.8759 25.5562 33.9725 26.5058 33.9725 28.0269C33.9725 29.5824 34.8759 30.5113 36.5041 30.5113C38.1335 30.5113 39.0368 29.5491 39.0368 28.0269C39.0368 26.4725 38.1335 25.5562 36.5041 25.5562ZM36.5041 26.5392C37.1118 26.5392 37.3692 26.9439 37.3692 28.0269C37.3692 29.111 37.128 29.5284 36.5041 29.5284C35.8964 29.5284 35.639 29.111 35.639 28.0269C35.639 26.9439 35.8964 26.5392 36.5041 26.5392ZM43.657 29.3398V25.6907H40.2522L40.0342 27.2324C39.8393 28.5523 39.6677 29.0443 39.4103 29.3398H38.9974V31.5553H40.0655L40.2209 30.3768H42.9322L43.0888 31.5553H44.1557V29.3398H43.657ZM42.1146 29.3398H40.6581C41.1324 28.9972 41.4061 28.404 41.5533 27.0646L41.5928 26.6806H42.1146V29.3398ZM47.2961 30.3768H48.9011V25.6907H47.2961V27.421H46.0575V25.6907H44.4525V30.3768H46.0575V28.4856H47.2961V30.3768ZM51.5973 27.2198H51.1763V25.6907H49.5714V30.3768H51.6599C52.8985 30.3768 53.803 29.8388 53.803 28.7477C53.803 27.7176 53.0005 27.2198 51.5973 27.2198ZM54.0674 25.6907V30.3768H55.6724V25.6907H54.0674ZM51.4489 29.4007H51.1763V28.1487H51.4187C51.9475 28.1487 52.1354 28.3913 52.1354 28.7615C52.1354 29.1582 51.9243 29.4007 51.4489 29.4007ZM58.5484 25.3538C59.4831 25.3538 59.9273 24.8422 59.9899 24.1697L59.1874 24.0547C59.1016 24.3375 58.8986 24.4525 58.5484 24.4525C58.197 24.4525 57.9952 24.3375 57.9094 24.0547L57.1069 24.1697C57.1684 24.8422 57.6126 25.3538 58.5484 25.3538ZM60.7448 25.6907H58.8824L57.6752 29.0305C57.7842 28.5454 57.9094 28.0338 57.9094 27.1784V25.6907H56.3427V30.3768H58.2446L59.4124 27.0036C59.2964 27.4681 59.1793 28.074 59.1793 28.9432V30.3768H60.7448V25.6907ZM67.3376 29.3398V25.6907H63.9316L63.7136 27.2324C63.5188 28.5523 63.3483 29.0443 63.0909 29.3398H62.678V31.5553H63.7449L63.9015 30.3768H66.6128L66.7682 31.5553H67.8363V29.3398H67.3376ZM65.7941 29.3398H64.3375C64.813 28.9972 65.0855 28.404 65.234 27.0646L65.2722 26.6806H65.7941V29.3398ZM72.5341 25.6907H70.6728L69.4645 29.0305C69.5735 28.5454 69.6987 28.0338 69.6987 27.1784V25.6907H68.132V30.3768H70.0339L71.2017 27.0036C71.0857 27.4681 70.9686 28.074 70.9686 28.9432V30.3768H72.5341V25.6907ZM75.6119 25.5562C74.0927 25.5562 73.0258 26.4587 73.0258 28.02C73.0258 29.6433 74.0463 30.5113 75.6363 30.5113C76.3912 30.5113 77.0232 30.2021 77.4198 29.8583L76.7194 29.0915C76.3912 29.3134 76.0955 29.4686 75.714 29.4686C75.0669 29.4686 74.6934 29.0099 74.6934 28.02C74.6934 27.0312 75.0669 26.553 75.6908 26.553C76.0491 26.553 76.3367 26.6806 76.6173 26.8622L77.3584 26.108C76.8899 25.7585 76.3297 25.5562 75.6119 25.5562ZM82.4146 25.6907H80.8722L79.8668 27.4612H79.36V25.6907H77.755V30.3768H79.36V28.4385H79.8273L80.8328 30.3768H82.5549L81.176 27.7716L82.4146 25.6907ZM85.6176 30.3768H87.3165L85.7417 25.6907H83.8247L82.2429 30.3768H83.9187L84.1216 29.4686H85.4065L85.6176 30.3768ZM84.3478 28.4982L84.7606 26.661L85.1804 28.4982H84.3478ZM91.8277 25.6907H90.1995L89.3889 28.404L88.4542 25.6907H86.8098L88.4298 29.1651H88.9134C88.656 29.4548 88.3208 29.5629 87.6668 29.6031L87.8697 30.5113C89.2323 30.4378 89.942 30.1147 90.4558 28.9029L91.8277 25.6907ZM94.8115 30.3768H96.4165V25.6907H94.8115V27.421H93.573V25.6907H91.968V30.3768H93.573V28.4856H94.8115V30.3768ZM101.107 25.6907H96.7911V26.7277H98.1073V30.3768H99.7135V26.7277H100.944L101.107 25.6907ZM104.965 25.6907H101.404V30.3768H104.926V29.4076H103.009V28.4649H104.583V27.5291H103.009V26.6541H104.801L104.965 25.6907ZM107.411 25.6907H105.456V30.3768H107.061V28.9156H107.591C108.876 28.9156 109.764 28.3637 109.764 27.2669C109.764 26.2161 108.869 25.6907 107.411 25.6907ZM107.435 27.9395H107.061V26.6541H107.388C107.918 26.6541 108.128 26.8829 108.128 27.2669C108.128 27.7245 107.887 27.9395 107.435 27.9395Z" fill="#22201E"/>
<path fill-rule="evenodd" clip-rule="evenodd" d="M17.0988 2.01185L17.0964 21.9693L28.3685 21.9705V18.1891H21.9474V13.4927H27.6947L27.6959 9.71248H21.9474L21.9485 5.79203L28.3685 5.79318L28.3697 2.01185H17.0988Z" fill="#FFEE00"/>
<path fill-rule="evenodd" clip-rule="evenodd" d="M38.2109 2.013V9.71248H35.0439V2.013L30.1929 2.01185L30.1918 21.9705H35.0427L35.0439 13.4927L38.2109 13.4938V21.9705L43.0607 21.9716L43.0619 2.013H38.2109Z" fill="#FFEE00"/>
<path fill-rule="evenodd" clip-rule="evenodd" d="M48.3294 2.01172L43.9551 21.9703H48.777L49.394 17.966H53.0945L53.8228 21.9703L58.5902 21.9715L54.1336 2.01172H48.3294ZM51.1335 5.5976L51.1613 5.59875L52.4509 14.3824H49.8718L51.1335 5.5976Z" fill="#FFEE00"/>
<path fill-rule="evenodd" clip-rule="evenodd" d="M60.9478 2.01562L60.9466 11.4385C60.9466 13.1032 61.2528 17.6572 58.6562 18.3447L59.475 22.0156C64.5463 22.0352 65.6282 16.8248 65.6282 12.6606L65.6294 5.79581H68.1308L68.1285 21.9742H72.9794L72.9806 2.01562H60.9478Z" fill="#FFEE00"/>
<path fill-rule="evenodd" clip-rule="evenodd" d="M81.3973 1.57092C76.8282 1.57092 74.837 4.04505 74.837 7.186L74.8359 16.1639C74.8359 20.1384 76.8827 22.4458 81.3683 22.4458C85.912 22.4458 87.902 20.1384 87.902 16.1639V7.21359C87.9031 4.22555 86.1184 1.77326 81.9308 1.58356C81.7568 1.57552 81.5794 1.57092 81.3973 1.57092ZM79.6868 16.9975L79.688 6.88133C79.688 5.74084 80.5287 5.24073 81.3707 5.24073C82.1836 5.24188 83.0522 5.74084 83.0522 6.88018V16.9975C83.0522 18.1931 82.1824 18.7772 81.3695 18.7772C81.3417 18.7772 81.3138 18.776 81.2872 18.7749C80.4731 18.7381 79.6868 18.154 79.6868 16.9975Z" fill="#FFEE00"/>
<path fill-rule="evenodd" clip-rule="evenodd" d="M101.267 2.01677C100.287 7.06161 99.5979 11.3293 98.9671 16.4132L98.9114 16.4143C98.3072 11.3132 97.5928 7.06966 96.6118 2.01562H89.8555V21.9731H94.4814L94.2309 6.26833H94.2576L97.2565 21.9731H100.621L103.622 6.26833H103.649L103.397 21.9742L108.023 21.9731L108.024 2.01677H101.267Z" fill="#FFEE00"/>
</svg>
