<svg width="32" height="32" viewBox="0 0 32 32" fill="none" xmlns="http://www.w3.org/2000/svg">
<g clip-path="url(#clip0_75_1020)">
<path d="M26 15C25.1649 10.1185 19.2644 8.99282 18 2C14.7914 3.36432 14.9601 6.11469 14 9C13.4001 10.803 10.4973 11.5 9 9C6.39724 11.6439 5.47313 14.9085 6 18C8.10922 32.7706 28.1496 27.5647 26 15Z" fill="#FFEE00"/>
<path d="M13.496 17.6328C12.924 17.6328 12.4647 17.4811 12.118 17.1778C11.78 16.8744 11.5937 16.4628 11.559 15.9428C11.5504 15.7954 11.546 15.6004 11.546 15.3578C11.546 15.0978 11.5504 14.8898 11.559 14.7338C11.5937 14.1964 11.7757 13.7718 12.105 13.4598C12.4344 13.1478 12.898 12.9918 13.496 12.9918C14.094 12.9918 14.5577 13.1478 14.887 13.4598C15.225 13.7718 15.4114 14.1964 15.446 14.7338C15.4634 15.0458 15.472 15.2538 15.472 15.3578C15.472 15.4531 15.4634 15.6481 15.446 15.9428C15.4114 16.4628 15.2207 16.8744 14.874 17.1778C14.536 17.4811 14.0767 17.6328 13.496 17.6328ZM12.443 22.1568C12.3564 22.1568 12.287 22.1351 12.235 22.0918C12.183 22.0398 12.157 21.9748 12.157 21.8968C12.157 21.8448 12.1744 21.7971 12.209 21.7538L18.618 13.3038C18.6874 13.2171 18.7524 13.1564 18.813 13.1218C18.8737 13.0784 18.9604 13.0568 19.073 13.0568H19.762C19.8487 13.0568 19.9137 13.0828 19.957 13.1348C20.009 13.1781 20.035 13.2388 20.035 13.3168C20.035 13.3688 20.0177 13.4164 19.983 13.4598L13.574 21.9098C13.5047 21.9964 13.4397 22.0614 13.379 22.1048C13.3184 22.1394 13.236 22.1568 13.132 22.1568H12.443ZM13.496 16.6578C13.7474 16.6578 13.9294 16.5841 14.042 16.4368C14.1634 16.2894 14.237 16.1031 14.263 15.8778C14.2804 15.5831 14.289 15.4011 14.289 15.3318C14.289 15.2364 14.2804 15.0588 14.263 14.7988C14.2457 14.5734 14.1764 14.3871 14.055 14.2398C13.9337 14.0838 13.7474 14.0058 13.496 14.0058C13.2534 14.0058 13.0714 14.0838 12.95 14.2398C12.8287 14.3871 12.7594 14.5734 12.742 14.7988C12.7334 14.9288 12.729 15.1064 12.729 15.3318C12.729 15.5484 12.7334 15.7304 12.742 15.8778C12.7594 16.0944 12.8244 16.2808 12.937 16.4368C13.0584 16.5841 13.2447 16.6578 13.496 16.6578ZM18.696 22.2348C18.124 22.2348 17.6647 22.0788 17.318 21.7668C16.98 21.4461 16.7937 21.0214 16.759 20.4928C16.7504 20.3454 16.746 20.1504 16.746 19.9078C16.746 19.6564 16.7504 19.4528 16.759 19.2968C16.7937 18.7594 16.9757 18.3348 17.305 18.0228C17.6344 17.7108 18.098 17.5548 18.696 17.5548C19.3027 17.5548 19.7707 17.7108 20.1 18.0228C20.4294 18.3348 20.6114 18.7594 20.646 19.2968C20.6634 19.6088 20.672 19.8124 20.672 19.9078C20.672 20.0031 20.6634 20.1981 20.646 20.4928C20.6114 21.0214 20.4207 21.4461 20.074 21.7668C19.736 22.0788 19.2767 22.2348 18.696 22.2348ZM18.696 21.2208C18.956 21.2208 19.1424 21.1471 19.255 20.9998C19.3764 20.8438 19.4457 20.6574 19.463 20.4408C19.4804 20.1461 19.489 19.9598 19.489 19.8818C19.489 19.7951 19.4804 19.6218 19.463 19.3618C19.4457 19.1364 19.3764 18.9501 19.255 18.8028C19.1337 18.6468 18.9474 18.5688 18.696 18.5688C18.4534 18.5688 18.2714 18.6468 18.15 18.8028C18.0287 18.9501 17.9594 19.1364 17.942 19.3618C17.9334 19.4918 17.929 19.6651 17.929 19.8818C17.929 20.1071 17.9334 20.2934 17.942 20.4408C17.9594 20.6574 18.0244 20.8438 18.137 20.9998C18.2584 21.1471 18.4447 21.2208 18.696 21.2208Z" fill="black"/>
</g>
<defs>
<clipPath id="clip0_75_1020">
<rect width="32" height="32" fill="white"/>
</clipPath>
</defs>
</svg>
